<svg width="333" height="44" viewBox="0 0 333 44" xmlns="http://www.w3.org/2000/svg"><g fill="none" fill-rule="evenodd"><path fill="#1FC99D" d="M173.177 9.014h16.418v3.601h-12.304v10.573h11.18v3.639h-11.18v8.52h-4.114zM217.118 22.18c0-5.615-3.883-9.836-9.394-9.836-5.512 0-9.432 4.221-9.432 9.836 0 5.616 3.92 9.837 9.432 9.837 5.511 0 9.394-4.221 9.394-9.837m-23.018 0c0-7.86 6.055-13.515 13.624-13.515 7.53 0 13.585 5.655 13.585 13.515 0 7.861-6.055 13.516-13.585 13.516-7.569 0-13.624-5.655-13.624-13.516M227.25 9.014h4.114v22.732h12.189v3.6H227.25zM249.143 9.014h4.114v22.732h12.189v3.6h-16.303zM291.298 22.18c0-5.615-3.881-9.836-9.393-9.836-5.513 0-9.432 4.221-9.432 9.836 0 5.616 3.92 9.837 9.432 9.837 5.512 0 9.393-4.221 9.393-9.837m-23.018 0c0-7.86 6.056-13.515 13.625-13.515 7.53 0 13.584 5.655 13.584 13.515 0 7.861-6.054 13.516-13.584 13.516-7.57 0-13.625-5.655-13.625-13.516M298.015 9.014h4.309l4.658 14.018c.505 1.472 1.01 3.757 1.01 3.757s.659-2.246 1.28-3.757l6.056-14.289h.504l6.094 14.29c.62 1.47 1.241 3.756 1.241 3.756s.544-2.285 1.05-3.757l4.658-14.018h3.996l-9.12 26.605h-.505l-6.56-15.685c-.544-1.277-1.087-3.214-1.087-3.214s-.621 1.937-1.164 3.214l-6.716 15.685h-.504l-9.2-26.605z"/><path fill="#00C6A5" d="M1.008 42.723h162.349V1.005H1.007z"/><path fill="#1BBC9B" d="M163.357 1.005v41.718H1.007"/><path stroke="#FFF" stroke-width="2.013" d="M163.357 38.354v4.369h-4.38"/><path d="M154.46 42.723H7.646" stroke="#FFF" stroke-width="2.013" stroke-dasharray="9.025198792743709,4.512239765796664"/><path stroke="#FFF" stroke-width="2.013" d="M5.387 42.723h-4.38v-4.37"/><path d="M1.008 33.643V7.73" stroke="#FFF" stroke-width="2.013" stroke-dasharray="9.43487895767214,4.716719788532259"/><path stroke="#FFF" stroke-width="2.013" d="M1.008 5.375v-4.37h4.38"/><path d="M9.904 1.005H156.72" stroke="#FFF" stroke-width="2.013" stroke-dasharray="9.025198792743709,4.512239765796664"/><path stroke="#FFF" stroke-width="2.013" d="M158.977 1.005h4.38v4.37"/><path d="M163.357 10.086v25.912" stroke="#FFF" stroke-width="2.013" stroke-dasharray="9.43487895767214,4.716719788532259"/><g fill="#187F5D"><path d="M32.847 31.822a10.788 10.788 0 0 1-1.77 1.887 12.35 12.35 0 0 1-2.309 1.542c-.844.438-1.758.784-2.74 1.038-.985.253-2.009.381-3.073.381-1.76 0-3.366-.3-4.825-.9-1.456-.6-2.713-1.438-3.765-2.51a11.28 11.28 0 0 1-2.447-3.81c-.578-1.465-.867-3.075-.867-4.83 0-1.708.289-3.307.867-4.795.578-1.489 1.394-2.783 2.447-3.88 1.052-1.094 2.312-1.961 3.783-2.596 1.47-.634 3.094-.952 4.876-.952 2.152 0 4.033.393 5.64 1.177a10.622 10.622 0 0 1 4.009 3.394l-3.574 3.428a8.632 8.632 0 0 0-2.466-2.338c-.949-.589-2.081-.883-3.4-.883-1.042 0-1.979.19-2.811.572-.833.38-1.54.907-2.118 1.576a7.177 7.177 0 0 0-1.335 2.336c-.314.89-.47 1.83-.47 2.822a8.37 8.37 0 0 0 .47 2.84c.312.877.756 1.64 1.335 2.285a6.217 6.217 0 0 0 2.083 1.524c.809.37 1.724.554 2.741.554.833 0 1.557-.086 2.17-.26a6.451 6.451 0 0 0 1.63-.693 6.404 6.404 0 0 0 1.268-1.003c.37-.38.729-.767 1.075-1.16l3.576 3.254zM46.106 31.754c1.017 0 1.932-.197 2.742-.589a6.24 6.24 0 0 0 2.065-1.593c.566-.669 1-1.442 1.3-2.32a8.576 8.576 0 0 0 .452-2.805c0-.993-.15-1.927-.451-2.805a6.94 6.94 0 0 0-1.301-2.303 6.152 6.152 0 0 0-2.065-1.558c-.81-.38-1.725-.57-2.742-.57-1.02 0-1.939.19-2.76.57-.822.38-1.516.9-2.083 1.558-.567.658-1 1.427-1.3 2.303a8.575 8.575 0 0 0-.452 2.805c0 .993.15 1.928.451 2.805.301.878.734 1.651 1.301 2.32.567.67 1.261 1.2 2.084 1.593.82.392 1.74.589 2.759.589m0 4.916c-1.714 0-3.304-.312-4.773-.935a11.798 11.798 0 0 1-3.818-2.562c-1.075-1.085-1.921-2.372-2.534-3.862-.613-1.488-.919-3.087-.919-4.795 0-1.73.306-3.335.92-4.813a11.846 11.846 0 0 1 2.533-3.844 11.809 11.809 0 0 1 3.818-2.562c1.47-.623 3.06-.935 4.773-.935 1.71 0 3.302.312 4.771.935a11.809 11.809 0 0 1 3.818 2.562 11.87 11.87 0 0 1 2.534 3.844c.612 1.478.92 3.083.92 4.813 0 1.708-.308 3.307-.92 4.795-.614 1.49-1.458 2.777-2.534 3.862a11.798 11.798 0 0 1-3.818 2.562c-1.469.623-3.06.935-4.771.935M61.585 12.985h5.275v13.678c0 .763.075 1.45.227 2.06.149.613.399 1.137.746 1.575.346.44.802.78 1.37 1.023.567.242 1.267.362 2.1.362.81 0 1.499-.12 2.066-.362.566-.244 1.023-.583 1.37-1.023.347-.438.595-.962.746-1.574.15-.612.226-1.298.226-2.06V12.984h5.31v14.336c0 1.385-.226 2.655-.678 3.809a8.225 8.225 0 0 1-1.942 2.96c-.845.82-1.87 1.46-3.072 1.922-1.204.462-2.545.692-4.027.692-1.48 0-2.823-.224-4.024-.674-1.204-.45-2.228-1.091-3.072-1.922a8.417 8.417 0 0 1-1.944-2.978c-.452-1.154-.677-2.424-.677-3.809V12.985zM93.514 23.72c.974 0 1.742-.294 2.31-.883.565-.59.85-1.356.85-2.303 0-.97-.29-1.76-.868-2.372-.579-.611-1.355-.917-2.326-.917h-3.02v6.475h3.054zm-8.156-10.735h8.435c1.434 0 2.66.208 3.678.624 1.018.416 1.857.964 2.516 1.645a6.38 6.38 0 0 1 1.458 2.371 8.47 8.47 0 0 1 .468 2.805c0 1.247-.213 2.337-.642 3.273a6.706 6.706 0 0 1-1.734 2.338 7.606 7.606 0 0 1-2.517 1.419 9.155 9.155 0 0 1-2.984.484H90.46v8.138h-5.103V12.985zM116.56 31.754c1.017 0 1.933-.197 2.743-.589a6.241 6.241 0 0 0 2.064-1.593c.567-.669 1-1.442 1.301-2.32a8.576 8.576 0 0 0 .452-2.805c0-.993-.15-1.927-.452-2.805a6.94 6.94 0 0 0-1.3-2.303 6.152 6.152 0 0 0-2.065-1.558c-.81-.38-1.726-.57-2.743-.57-1.019 0-1.938.19-2.759.57-.822.38-1.516.9-2.083 1.558a6.93 6.93 0 0 0-1.301 2.303 8.575 8.575 0 0 0-.452 2.805c0 .993.15 1.928.452 2.805.3.878.734 1.651 1.301 2.32.567.67 1.26 1.2 2.083 1.593.82.392 1.74.589 2.76.589m0 4.916c-1.714 0-3.303-.312-4.772-.935a11.8 11.8 0 0 1-3.819-2.562c-1.075-1.085-1.92-2.372-2.534-3.862-.613-1.488-.919-3.087-.919-4.795 0-1.73.306-3.335.919-4.813a11.858 11.858 0 0 1 2.534-3.844 11.812 11.812 0 0 1 3.819-2.562c1.469-.623 3.058-.935 4.771-.935 1.712 0 3.303.312 4.772.935a11.81 11.81 0 0 1 3.818 2.562 11.87 11.87 0 0 1 2.534 3.844c.612 1.478.92 3.083.92 4.813 0 1.708-.308 3.307-.92 4.795-.614 1.49-1.459 2.777-2.534 3.862a11.798 11.798 0 0 1-3.818 2.562c-1.469.623-3.06.935-4.772.935M132.211 12.985h4.999l10.03 14.994V12.985h5.172v23.096h-4.755l-10.273-15.269v15.27h-5.173z"/></g><path d="M32.847 28.975c-.486.67-1.076 1.3-1.77 1.887a12.382 12.382 0 0 1-2.309 1.541c-.844.44-1.758.785-2.74 1.04a12.32 12.32 0 0 1-3.073.38c-1.76 0-3.366-.3-4.825-.9-1.456-.6-2.713-1.438-3.765-2.51a11.28 11.28 0 0 1-2.447-3.81c-.578-1.465-.867-3.075-.867-4.83 0-1.709.289-3.307.867-4.796.578-1.488 1.394-2.781 2.447-3.879 1.052-1.095 2.312-1.961 3.783-2.596 1.47-.634 3.094-.952 4.876-.952 2.152 0 4.033.393 5.64 1.177a10.622 10.622 0 0 1 4.009 3.394l-3.574 3.427a8.632 8.632 0 0 0-2.466-2.338c-.949-.588-2.081-.882-3.4-.882-1.042 0-1.979.19-2.811.572a6.133 6.133 0 0 0-2.118 1.575 7.177 7.177 0 0 0-1.335 2.337c-.314.89-.47 1.83-.47 2.822 0 1.017.156 1.963.47 2.84a6.795 6.795 0 0 0 1.335 2.285 6.225 6.225 0 0 0 2.083 1.523c.809.37 1.724.555 2.741.555.833 0 1.557-.087 2.17-.26a6.425 6.425 0 0 0 1.63-.693 6.404 6.404 0 0 0 1.268-1.003c.37-.38.729-.768 1.075-1.16l3.576 3.254zM46.106 28.906c1.017 0 1.932-.196 2.742-.588a6.24 6.24 0 0 0 2.065-1.593c.566-.67 1-1.442 1.3-2.32a8.572 8.572 0 0 0 .452-2.805c0-.993-.15-1.928-.451-2.805a6.948 6.948 0 0 0-1.301-2.303 6.152 6.152 0 0 0-2.065-1.558c-.81-.38-1.725-.57-2.742-.57-1.02 0-1.939.19-2.76.57-.822.38-1.516.9-2.083 1.558-.567.658-1 1.426-1.3 2.303a8.577 8.577 0 0 0-.452 2.805c0 .993.15 1.928.451 2.805.301.878.734 1.65 1.301 2.32.567.67 1.261 1.2 2.084 1.593.82.392 1.74.588 2.759.588m0 4.917c-1.714 0-3.304-.312-4.773-.935a11.786 11.786 0 0 1-3.818-2.562c-1.075-1.085-1.921-2.373-2.534-3.861-.613-1.49-.919-3.087-.919-4.796 0-1.73.306-3.336.92-4.813a11.831 11.831 0 0 1 2.533-3.843 11.786 11.786 0 0 1 3.818-2.562c1.47-.624 3.06-.935 4.773-.935 1.71 0 3.302.311 4.771.935a11.786 11.786 0 0 1 3.818 2.562 11.854 11.854 0 0 1 2.534 3.843c.612 1.477.92 3.082.92 4.813 0 1.709-.308 3.307-.92 4.796-.614 1.488-1.458 2.776-2.534 3.86a11.786 11.786 0 0 1-3.818 2.563c-1.469.623-3.06.935-4.771.935M61.585 10.138h5.275v13.678c0 .762.075 1.449.227 2.06.149.612.399 1.137.746 1.576.346.44.802.779 1.37 1.022.567.242 1.267.363 2.1.363.81 0 1.499-.121 2.066-.363.566-.243 1.023-.583 1.37-1.022.347-.439.595-.964.746-1.576.15-.611.226-1.298.226-2.06V10.138h5.31v14.336c0 1.386-.226 2.655-.678 3.808a8.225 8.225 0 0 1-1.942 2.96c-.845.821-1.87 1.461-3.072 1.922-1.204.463-2.545.693-4.027.693-1.48 0-2.823-.224-4.024-.675-1.204-.45-2.228-1.09-3.072-1.922a8.408 8.408 0 0 1-1.944-2.978c-.452-1.153-.677-2.422-.677-3.808V10.138zM93.514 20.873c.974 0 1.742-.295 2.31-.883.565-.59.85-1.357.85-2.303 0-.97-.29-1.76-.868-2.372-.579-.612-1.355-.917-2.326-.917h-3.02v6.475h3.054zm-8.156-10.735h8.435c1.434 0 2.66.208 3.678.624 1.018.415 1.857.964 2.516 1.645a6.375 6.375 0 0 1 1.458 2.371c.314.9.468 1.836.468 2.805 0 1.247-.213 2.337-.642 3.272a6.693 6.693 0 0 1-1.734 2.338 7.608 7.608 0 0 1-2.517 1.42 9.174 9.174 0 0 1-2.984.484H90.46v8.137h-5.103V10.138zM116.56 28.906c1.017 0 1.933-.196 2.743-.588a6.24 6.24 0 0 0 2.064-1.593c.567-.67 1-1.442 1.301-2.32a8.572 8.572 0 0 0 .452-2.805c0-.993-.15-1.928-.452-2.805a6.948 6.948 0 0 0-1.3-2.303 6.152 6.152 0 0 0-2.065-1.558c-.81-.38-1.726-.57-2.743-.57-1.019 0-1.938.19-2.759.57-.822.38-1.516.9-2.083 1.558a6.937 6.937 0 0 0-1.301 2.303 8.576 8.576 0 0 0-.452 2.805c0 .993.15 1.928.452 2.805.3.878.734 1.65 1.301 2.32.567.67 1.26 1.2 2.083 1.593.82.392 1.74.588 2.76.588m0 4.917c-1.714 0-3.303-.312-4.772-.935a11.79 11.79 0 0 1-3.819-2.562c-1.075-1.085-1.92-2.373-2.534-3.861-.613-1.49-.919-3.087-.919-4.796 0-1.73.306-3.336.919-4.813a11.843 11.843 0 0 1 2.534-3.843 11.79 11.79 0 0 1 3.819-2.562c1.469-.624 3.058-.935 4.771-.935 1.712 0 3.303.311 4.772.935a11.786 11.786 0 0 1 3.818 2.562 11.854 11.854 0 0 1 2.534 3.843c.612 1.477.92 3.082.92 4.813 0 1.709-.308 3.307-.92 4.796-.614 1.488-1.459 2.776-2.534 3.86a11.786 11.786 0 0 1-3.818 2.563c-1.469.623-3.06.935-4.772.935M132.211 10.138h4.999l10.03 14.993V10.138h5.172v23.096h-4.755l-10.273-15.27v15.27h-5.173z" fill="#FFF"/></g></svg>